<svg width="65" height="65" viewBox="0 0 65 65" fill="none" xmlns="http://www.w3.org/2000/svg">
<g opacity="0.75" clip-path="url(#clip0)">
<path d="M64.0479 38.8096C64.0479 41.1327 62.1647 43.016 59.8416 43.016H28.2937C25.9706 43.016 24.0874 41.1327 24.0874 38.8096V7.26176C24.0874 4.93864 25.9706 3.05542 28.2937 3.05542H59.8416C62.1647 3.05542 64.0479 4.93864 64.0479 7.26176V38.8096Z" fill="#5C545F"/>
<path d="M64.0479 7.26176C64.0479 4.93864 62.1645 3.05542 59.8416 3.05542H56.9216C59.2447 3.05542 61.128 4.93864 61.128 7.26176V38.8096C61.128 41.1327 59.2447 43.016 56.9216 43.016H59.8416C62.1647 43.016 64.0479 41.1327 64.0479 38.8096V7.26176Z" fill="#4B3F4E"/>
<path d="M59.8415 36.7065C59.8415 37.868 58.8999 38.8097 57.7383 38.8097H30.3969C29.2354 38.8097 28.2937 37.8681 28.2937 36.7065V9.36495C28.2937 8.20346 29.2353 7.26172 30.3969 7.26172H57.7384C58.9001 7.26172 59.8417 8.20333 59.8417 9.36495L59.8415 36.7065Z" fill="#9DC6FB"/>
<path d="M59.8415 9.36495C59.8415 8.20346 58.8999 7.26172 57.7383 7.26172H54.8184C55.9799 7.26172 56.9216 8.20333 56.9216 9.36495V36.7065C56.9216 37.868 55.98 38.8097 54.8184 38.8097H57.7383C58.8999 38.8097 59.8415 37.8681 59.8415 36.7065V9.36495Z" fill="#80B4FB"/>
<path d="M34.6032 15.6745C35.7648 15.6745 36.7065 14.7328 36.7065 13.5712C36.7065 12.4097 35.7648 11.468 34.6032 11.468C33.4416 11.468 32.5 12.4097 32.5 13.5712C32.5 14.7328 33.4416 15.6745 34.6032 15.6745Z" fill="#ECF4FF"/>
<path d="M17.7777 44.6105V7.36558C17.7777 3.9056 15.0355 1.01081 11.576 0.95305C8.04188 0.894017 5.15852 3.74119 5.15852 7.26173V44.6103C5.15852 44.9257 5.01544 45.2225 4.77245 45.4235C2.41074 47.3757 0.915997 50.3395 0.952813 53.6516C1.0154 59.2826 5.58482 63.9124 11.2146 64.0449C17.1383 64.1843 21.984 59.424 21.984 53.532C21.984 50.268 20.4967 47.3516 18.1631 45.4228C17.9204 45.2221 17.7777 44.9254 17.7777 44.6105Z" fill="#ECF4FF"/>
<path d="M13.5714 46.8819V20.9324C13.5714 20.3516 13.1005 19.8809 12.5199 19.8809H10.4166C9.83582 19.8809 9.36507 20.3517 9.36507 20.9324V46.8758C9.36507 47.2792 9.13897 47.6538 8.77436 47.8262C6.53668 48.8843 5.02074 51.2187 5.16864 53.8906C5.34701 57.1138 7.98903 59.7101 11.2147 59.8364C14.8148 59.9775 17.7779 57.1007 17.7779 53.5318C17.7779 51.0176 16.3069 48.848 14.179 47.834C13.81 47.6583 13.5714 47.2905 13.5714 46.8819Z" fill="#FF8086"/>
<path d="M18.1632 45.4228C17.9203 45.2221 17.7777 44.9254 17.7777 44.6103V7.36556C17.7777 3.90558 15.0356 1.01079 11.5761 0.95303C11.0317 0.944016 10.5031 1.00432 9.9978 1.12492C12.7962 1.79778 14.8536 4.36883 14.8536 7.36556V44.6103C14.8536 44.9253 14.9963 45.2221 15.2391 45.4228C17.5726 47.3516 19.06 50.2678 19.06 53.5318C19.06 58.8411 15.1248 63.2296 10.0124 63.9442C10.407 63.9995 10.8076 64.0353 11.2146 64.0449C17.1384 64.1843 21.9842 59.424 21.9842 53.5319C21.9841 50.268 20.4967 47.3516 18.1632 45.4228Z" fill="#DDEAFB"/>
<path d="M14.1787 47.8342C13.8098 47.6583 13.5713 47.2907 13.5713 46.882V20.9324C13.5713 20.3516 13.1004 19.8809 12.5197 19.8809H10.4165C10.2716 19.8809 10.1336 19.9102 10.0081 19.9631C10.386 20.1226 10.6513 20.4965 10.6513 20.9324V46.8819C10.6513 47.2905 10.8899 47.6583 11.2588 47.834C13.3868 48.848 14.8577 51.0176 14.8577 53.5318C14.8577 56.5136 12.7888 59.0106 10.0087 59.6699C10.3984 59.7631 10.8015 59.8203 11.2144 59.8364C14.8145 59.9775 17.7776 57.1007 17.7776 53.5318C17.7776 51.0178 16.3066 48.848 14.1787 47.8342Z" fill="#E5646E"/>
<path d="M18.7699 44.6891C18.7445 44.668 18.7299 44.6393 18.7299 44.6104V7.36559C18.7299 3.37051 15.5278 0.0668124 11.5919 0.00105079C9.63402 -0.03183 7.77594 0.707925 6.37679 2.08397C4.97739 3.46026 4.20666 5.29905 4.20666 7.26174V17.9766C4.20666 18.5024 4.63284 18.9287 5.1588 18.9287C5.68477 18.9287 6.11095 18.5024 6.11095 17.9766V7.26174C6.11095 5.81372 6.67957 4.4571 7.71208 3.4416C8.74433 2.42649 10.107 1.88211 11.5603 1.90509C14.4636 1.95359 16.8258 4.40314 16.8258 7.36559V44.6103C16.8258 45.2088 17.0922 45.7725 17.5568 46.1567C19.7655 47.9821 21.0322 50.6702 21.0322 53.5317C21.0322 56.129 20.0087 58.559 18.1505 60.374C16.293 62.1884 13.8405 63.155 11.2373 63.0928C6.14815 62.9731 1.96188 58.7329 1.90526 53.6407C1.87288 50.7366 3.13924 48.009 5.37919 46.1572C5.84435 45.7729 6.11108 45.209 6.11108 44.6101V21.7852C6.11108 21.2593 5.6849 20.833 5.15893 20.833C4.63297 20.833 4.20678 21.2593 4.20678 21.7852V44.6103C4.20678 44.6392 4.19206 44.6682 4.16616 44.6895C1.48047 46.9098 -0.0376312 50.1801 0.000962495 53.662C0.0340972 56.6336 1.21235 59.4452 3.31875 61.5789C5.42553 63.713 8.2218 64.9268 11.1924 64.9966C11.2855 64.9988 11.3784 64.9999 11.4713 64.9999C14.4849 64.9998 17.32 63.8471 19.4811 61.7363C21.7094 59.5599 22.9365 56.6462 22.9365 53.5317C22.9364 50.1006 21.4178 46.8775 18.7699 44.6891Z" fill="black"/>
<path d="M12.5196 18.9287H10.4165C9.31166 18.9287 8.41283 19.8275 8.41283 20.9324V46.8758C8.41283 46.9153 8.39379 46.9529 8.36725 46.9654C5.68232 48.2352 4.05352 50.9742 4.21792 53.9433C4.42231 57.6365 7.47922 60.6431 11.1772 60.7879C11.2757 60.7919 11.3739 60.7937 11.4718 60.7937C13.3588 60.7937 15.135 60.0801 16.5008 58.7669C17.9381 57.3847 18.7298 55.5255 18.7298 53.5319C18.7298 50.7474 17.1042 48.1735 14.5885 46.9747C14.5485 46.9556 14.5235 46.9201 14.5235 46.8821V20.9324C14.5235 19.8275 13.6245 18.9287 12.5196 18.9287ZM16.8255 53.5319C16.8255 55.0028 16.2414 56.3744 15.181 57.3942C14.121 58.4134 12.7262 58.9431 11.2519 58.8852C8.52455 58.7783 6.26999 56.5613 6.11917 53.838C5.9978 51.6459 7.19979 49.6239 9.18102 48.687C9.87114 48.3609 10.317 47.65 10.317 46.8758V20.9324C10.317 20.8776 10.3617 20.833 10.4164 20.833H12.5195C12.5745 20.833 12.619 20.8776 12.619 20.9324V46.8819C12.619 47.6496 13.0705 48.3606 13.7691 48.6936C15.6259 49.5784 16.8255 51.4776 16.8255 53.5319Z" fill="black"/>
<path d="M34.6031 16.6267C36.2879 16.6267 37.6585 15.2562 37.6585 13.5714C37.6585 11.8867 36.2878 10.5161 34.6031 10.5161C32.9184 10.5161 31.5479 11.8867 31.5479 13.5714C31.5479 15.2562 32.9184 16.6267 34.6031 16.6267ZM34.6031 12.4204C35.2379 12.4204 35.7542 12.9367 35.7542 13.5714C35.7542 14.2061 35.2379 14.7225 34.6031 14.7225C33.9685 14.7225 33.4521 14.2061 33.4521 13.5714C33.4521 12.9367 33.9685 12.4204 34.6031 12.4204Z" fill="black"/>
<path d="M48.3478 35.5555C51.051 35.5555 53.4654 34.6778 55.3295 33.0174C55.6955 32.6915 56.0438 32.3323 56.3646 31.9496C56.7025 31.5468 56.6499 30.9462 56.247 30.6082C55.8441 30.2703 55.2436 30.323 54.9056 30.7258C54.6439 31.038 54.3603 31.3305 54.0629 31.5953C52.5314 32.9594 50.6084 33.651 48.3478 33.651C42.4943 33.651 37.7323 28.889 37.7323 23.0356C37.7323 17.1823 42.4944 12.4202 48.3478 12.4202C50.4751 12.4202 52.5272 13.0469 54.2822 14.2325C54.7179 14.527 55.3097 14.4123 55.6041 13.9766C55.8984 13.5408 55.7839 12.9489 55.3481 12.6545C53.277 11.2554 50.8563 10.5159 48.3476 10.5159C41.4442 10.5159 35.8279 16.1321 35.8279 23.0356C35.8279 29.9391 41.4443 35.5555 48.3478 35.5555Z" fill="black"/>
<path d="M27.3413 9.36507L27.3414 36.7066C27.3414 38.3913 28.712 39.762 30.3967 39.762H57.7381C59.4227 39.762 60.7935 38.3914 60.7935 36.7066L60.7933 9.36507C60.7933 7.6804 59.4227 6.30981 57.7381 6.30981H30.3967C28.712 6.30969 27.3413 7.6804 27.3413 9.36507ZM58.8892 9.36507L58.8893 36.7066C58.8893 37.3412 58.373 37.8577 57.7382 37.8577H30.3967C29.7621 37.8577 29.2457 37.3413 29.2457 36.7066L29.2456 9.36507C29.2456 8.73043 29.7619 8.21411 30.3967 8.21411H57.7381C58.3728 8.21398 58.8892 8.73043 58.8892 9.36507Z" fill="black"/>
<path d="M59.8413 2.10327H36.5075C35.9815 2.10327 35.5553 2.52958 35.5553 3.05542C35.5553 3.58126 35.9815 4.00757 36.5075 4.00757H59.8413C61.6358 4.00757 63.0957 5.4674 63.0957 7.26176V38.8096C63.0957 40.604 61.6358 42.0638 59.8415 42.0638H28.2936C26.4991 42.0638 25.0393 40.604 25.0393 38.8096V7.26176C25.0393 5.4674 26.4991 4.00757 28.2935 4.00757H32.6988C33.2247 4.00757 33.6509 3.58126 33.6509 3.05542C33.6509 2.52958 33.2247 2.10327 32.6988 2.10327H28.2935C25.4491 2.10327 23.135 4.41737 23.135 7.26176V38.8096C23.135 41.654 25.4492 43.9681 28.2936 43.9681H59.8415C62.6859 43.9681 65 41.654 65 38.8096V7.26176C65 4.41737 62.6857 2.10327 59.8413 2.10327Z" fill="black"/>
</g>
<defs>
<clipPath id="clip0">
<rect width="65" height="65" fill="white"/>
</clipPath>
</defs>
</svg>
